<?xml version="1.0" encoding="UTF-8" standalone="no"?><!-- Generator: Gravit.io --><svg xmlns="http://www.w3.org/2000/svg" xmlns:xlink="http://www.w3.org/1999/xlink" style="isolation:isolate" viewBox="0 0 99 80" width="99pt" height="80pt"><defs><clipPath id="_clipPath_bGBNHu7NrmGXHJxChaZHdsyypQtOC0ZK"><rect width="99" height="80"/></clipPath></defs><g clip-path="url(#_clipPath_bGBNHu7NrmGXHJxChaZHdsyypQtOC0ZK)"><clipPath id="_clipPath_8Zl0RxsVhkaCkDLmIDnZJQPE5iho3nBe"><rect x="0" y="0" width="99" height="80" transform="matrix(1,0,0,1,0,0)" fill="rgb(255,255,255)"/></clipPath><g clip-path="url(#_clipPath_8Zl0RxsVhkaCkDLmIDnZJQPE5iho3nBe)"><g><clipPath id="_clipPath_tKEa1c7bGuWiSfwXFPpupO8qLw3HwQK3"><rect x="0" y="0" width="99" height="80" transform="matrix(1,0,0,1,0,0)" fill="rgb(255,255,255)"/></clipPath><g clip-path="url(#_clipPath_tKEa1c7bGuWiSfwXFPpupO8qLw3HwQK3)"><g><g><clipPath id="_clipPath_ZYglhNCrRqypplXV6DqE6KRmBuTsamKW"><path d=" M 100 80 L 100 0 L 0 0 L 0 80" fill="rgb(255,255,255)"/></clipPath><g clip-path="url(#_clipPath_ZYglhNCrRqypplXV6DqE6KRmBuTsamKW)"><g><g><g><g><path d=" M 6.055 13.997 C 5.176 14.358 4.375 15.061 3.848 15.963 L 3.418 16.684 L 3.418 37.103 L 3.418 57.521 L 3.867 57.935 L 4.316 58.35 L 28.477 58.404 C 41.758 58.422 52.93 58.404 53.281 58.35 C 53.613 58.296 54.082 58.062 54.297 57.863 C 54.688 57.485 54.688 57.214 54.688 37.175 L 54.688 16.865 L 54.219 15.963 C 53.691 14.917 53.105 14.376 52.109 13.979 C 51.465 13.744 48.77 13.708 29.063 13.708 C 9.551 13.726 6.66 13.762 6.055 13.997 Z " fill="rgb(20,55,86)"/><path d=" M 60.176 22.132 C 59.805 22.312 59.316 22.691 59.102 22.961 C 58.691 23.466 58.691 23.575 58.633 42.856 L 58.594 62.228 L 47.52 62.228 L 36.445 62.228 L 37.246 63.004 C 38.73 64.429 40 66.593 40.332 68.235 L 40.469 68.902 L 52.207 68.866 L 63.926 68.812 L 64.258 67.73 C 64.746 66.106 65.488 64.79 66.641 63.545 C 69.551 60.389 73.965 59.054 78.184 60.046 C 82.52 61.074 85.586 63.96 86.719 68.126 L 86.934 68.902 L 93.066 68.902 C 98.965 68.902 99.238 68.884 99.609 68.541 C 99.961 68.217 100 67.946 100 65.511 C 100 62.12 100.098 62.228 97.207 62.228 L 95.117 62.228 L 95.117 52.614 C 95.117 46.067 95.039 42.658 94.883 41.955 C 94.531 40.313 93.535 38.726 88.77 32.196 C 83.145 24.513 82.266 23.647 78.73 22.384 L 77.441 21.915 L 69.141 21.861 C 61.504 21.825 60.781 21.843 60.176 22.132 Z  M 78.164 29.437 C 78.555 29.707 85.41 38.726 85.605 39.195 C 85.82 39.754 85.234 40.548 84.512 40.674 C 84.18 40.728 79.863 40.764 74.941 40.728 L 65.977 40.674 L 65.605 40.241 C 65.254 39.844 65.234 39.483 65.234 35.046 C 65.234 30.357 65.312 29.725 65.898 29.365 C 66.016 29.292 68.75 29.22 71.992 29.22 C 76.387 29.22 77.93 29.274 78.164 29.437 Z " fill="rgb(20,55,86)"/><path d=" M 0.332 62.553 C 0.059 62.842 0 63.329 0 65.529 C 0 67.946 0.039 68.217 0.391 68.541 C 0.762 68.884 1.035 68.902 9.16 68.902 L 17.539 68.902 L 17.656 68.09 C 17.871 66.864 19.219 64.519 20.449 63.311 L 21.523 62.228 L 11.094 62.228 C 1.211 62.228 0.625 62.246 0.332 62.553 Z " fill="rgb(20,55,86)"/><path d=" M 26.348 62.517 C 22.578 63.581 20.078 66.738 20.078 70.435 C 20.078 76.784 27.187 80.626 33.398 77.65 C 34.395 77.163 36.074 75.63 36.699 74.602 C 38.301 72.004 38.281 68.704 36.66 66.16 C 35.645 64.555 33.555 63.076 31.465 62.481 C 30.312 62.156 27.52 62.174 26.348 62.517 Z  M 30.215 66.647 C 32.012 67.134 33.223 68.668 33.223 70.435 C 33.223 71.626 32.715 72.618 31.621 73.465 C 28.926 75.612 24.707 73.754 24.707 70.435 C 24.707 68.632 25.879 67.189 27.793 66.629 C 28.867 66.323 29.043 66.323 30.215 66.647 Z " fill="rgb(20,55,86)"/><path d=" M 72.52 62.589 C 70.469 63.256 68.418 64.88 67.441 66.611 C 66.504 68.307 66.25 71.012 66.875 72.906 C 67.695 75.414 70.098 77.596 72.891 78.372 C 74.336 78.768 76.816 78.732 78.223 78.281 C 84.727 76.207 86.484 68.523 81.406 64.303 C 80.273 63.365 79.707 63.058 78.164 62.571 C 76.719 62.12 73.945 62.12 72.52 62.589 Z  M 76.465 66.575 C 77.539 66.828 78.848 67.838 79.316 68.794 C 80.566 71.355 78.496 74.367 75.488 74.367 C 73.652 74.367 72.344 73.592 71.562 72.059 C 70.996 70.958 70.977 69.966 71.504 68.902 C 72.148 67.603 73.066 66.864 74.512 66.539 C 75.371 66.359 75.527 66.359 76.465 66.575 Z " fill="rgb(20,55,86)"/><g><g filter="url(#xpk4g29gmUchSS3YXkWJHpU9irQciUrh)"><path d=" M 27.163 1.512 C 23.67 1.804 20.869 2.884 18.524 4.839 C 14.399 8.28 13.334 13.467 15.853 17.822 C 16.302 18.596 27.194 33.332 27.574 33.681 C 27.939 34.011 28.632 34.062 29.058 33.783 C 29.271 33.643 39.851 18.977 40.413 18.044 C 41.037 17.003 41.448 15.962 41.715 14.743 C 41.875 14.006 41.891 12.045 41.745 11.283 C 41.266 8.757 39.965 6.598 37.856 4.839 C 35.763 3.093 33.107 1.97 30.177 1.602 C 29.568 1.525 27.666 1.468 27.163 1.512 Z  M 30.055 7.404 C 32.361 7.982 34.066 9.404 34.781 11.346 C 34.972 11.867 34.995 12.007 34.995 12.902 C 34.995 13.791 34.972 13.943 34.789 14.445 C 33.815 17.092 31.105 18.723 27.886 18.596 C 24.88 18.482 22.497 16.908 21.591 14.445 C 21.409 13.943 21.386 13.791 21.386 12.902 C 21.386 12.007 21.409 11.867 21.599 11.346 C 22.376 9.226 24.263 7.778 26.904 7.283 C 27.688 7.138 29.202 7.195 30.055 7.404 Z " fill="rgb(255,255,255)"/></g><defs><filter id="xpk4g29gmUchSS3YXkWJHpU9irQciUrh" x="-200%" y="-200%" width="400%" height="400%" filterUnits="objectBoundingBox" color-interpolation-filters="sRGB"><feGaussianBlur xmlns="http://www.w3.org/2000/svg" in="SourceGraphic" stdDeviation="2.146804531419514"/><feOffset xmlns="http://www.w3.org/2000/svg" dx="0" dy="0" result="pf_100_offsetBlur"/><feFlood xmlns="http://www.w3.org/2000/svg" flood-color="#FFFFFF" flood-opacity="1"/><feComposite xmlns="http://www.w3.org/2000/svg" in2="pf_100_offsetBlur" operator="in" result="pf_100_dropShadow"/><feBlend xmlns="http://www.w3.org/2000/svg" in="SourceGraphic" in2="pf_100_dropShadow" mode="normal"/></filter></defs><path d=" M 28.201 9.194 C 26.177 9.556 24.623 11.169 24.623 12.902 C 24.623 14.959 26.724 16.711 29.191 16.711 C 31.291 16.711 33.209 15.41 33.643 13.695 C 33.97 12.4 33.521 11.175 32.395 10.229 C 31.261 9.283 29.753 8.915 28.201 9.194 Z " fill="rgb(255,255,255)"/></g><g><g filter="url(#01Tq4ABj7E9ffCaPXhAmOiSdWIba7vf6)"><path d=" M 11.196 16.881 C 10.745 16.986 10.395 17.238 10.195 17.602 L 10.003 17.959 L 10.003 21.699 L 10.003 25.438 L 9.16 25.617 C 6.733 26.128 4.697 27.847 3.83 30.111 C 3.37 31.32 3.387 31.044 3.354 39.675 C 3.329 44.826 3.345 48.03 3.404 48.695 C 3.588 50.796 4.388 52.37 5.965 53.708 C 6.232 53.936 6.583 54.195 6.749 54.284 L 7.041 54.446 L 7.016 55.119 C 6.958 56.467 7.208 57.277 7.851 57.805 C 8.477 58.316 8.017 58.292 15.802 58.292 C 23.684 58.292 23.259 58.324 23.918 57.732 C 24.502 57.213 24.627 56.863 24.67 55.558 L 24.711 54.454 L 25.137 54.163 C 26.338 53.359 27.348 52.102 27.856 50.772 C 28.323 49.539 28.306 49.969 28.331 41.054 C 28.365 32.455 28.34 31.628 28.015 30.557 C 27.614 29.251 26.705 27.921 25.604 27.036 C 24.827 26.42 23.568 25.836 22.525 25.617 L 21.683 25.438 L 21.683 21.683 C 21.683 18.105 21.674 17.911 21.516 17.611 C 21.341 17.27 21.04 17.035 20.606 16.897 C 20.281 16.783 11.655 16.775 11.196 16.881 Z  M 18.571 19.833 L 18.805 20.028 L 18.805 21.091 C 18.805 22.616 19.072 22.486 15.851 22.486 C 14.008 22.486 13.215 22.461 13.131 22.396 C 12.906 22.218 12.823 21.748 12.856 20.88 C 12.881 20.068 12.898 20.02 13.115 19.833 L 13.348 19.638 L 15.843 19.638 L 18.338 19.638 L 18.571 19.833 Z  M 15.959 33.38 C 15.934 33.445 15.826 33.559 15.718 33.623 C 15.609 33.696 15.409 33.924 15.284 34.134 C 15.092 34.451 15.05 34.613 15.059 35.01 C 15.075 36.016 15.759 36.876 17.92 38.571 C 20.298 40.445 21.266 41.719 21.641 43.447 C 22.075 45.442 21.457 47.138 19.955 48.103 C 18.504 49.036 15.651 49.328 13.398 48.768 C 11.08 48.184 9.802 46.61 9.945 44.501 C 10.003 43.747 10.287 42.854 10.679 42.222 C 10.962 41.776 11.63 41.07 11.713 41.151 C 11.738 41.167 11.722 41.37 11.68 41.597 C 11.538 42.311 11.738 42.717 12.33 42.911 C 13.34 43.236 14.066 42.676 13.991 41.621 C 13.966 41.249 13.866 41.005 13.432 40.259 C 12.756 39.066 12.589 38.596 12.589 37.809 C 12.589 36.025 13.648 34.102 14.966 33.494 C 15.517 33.242 16.034 33.186 15.959 33.38 Z " fill="rgb(255,255,255)"/></g><defs><filter id="01Tq4ABj7E9ffCaPXhAmOiSdWIba7vf6" x="-200%" y="-200%" width="400%" height="400%" filterUnits="objectBoundingBox" color-interpolation-filters="sRGB"><feGaussianBlur xmlns="http://www.w3.org/2000/svg" in="SourceGraphic" stdDeviation="2.146804531419514"/><feOffset xmlns="http://www.w3.org/2000/svg" dx="0" dy="0" result="pf_100_offsetBlur"/><feFlood xmlns="http://www.w3.org/2000/svg" flood-color="#143756" flood-opacity="1"/><feComposite xmlns="http://www.w3.org/2000/svg" in2="pf_100_offsetBlur" operator="in" result="pf_100_dropShadow"/><feBlend xmlns="http://www.w3.org/2000/svg" in="SourceGraphic" in2="pf_100_dropShadow" mode="normal"/></filter></defs></g><g><path d=" M 0.079 52.602 C -0.028 52.671 -0.091 52.773 -0.148 52.973 C -0.238 53.275 -0.142 53.629 0.077 53.8 C 0.159 53.866 0.524 53.869 5.678 53.869 C 10.833 53.869 11.198 53.866 11.28 53.8 C 11.593 53.555 11.627 52.952 11.346 52.663 L 11.249 52.565 L 5.707 52.557 C 1.151 52.549 0.15 52.557 0.079 52.602 Z " fill="rgb(255,255,255)"/><path d=" M 1.144 54.887 C 1.065 54.985 0.976 55.283 0.976 55.446 C 0.976 55.609 1.065 55.907 1.144 56.004 L 1.216 56.098 L 5.37 56.098 L 9.525 56.098 L 9.598 56.004 C 9.676 55.907 9.765 55.609 9.765 55.446 C 9.765 55.283 9.676 54.985 9.598 54.887 L 9.525 54.793 L 5.37 54.793 L 1.216 54.793 L 1.144 54.887 Z " fill="rgb(255,255,255)"/><path d=" M 2.545 56.858 C 2.393 56.964 2.318 57.376 2.379 57.767 C 2.395 57.868 2.428 57.995 2.454 58.048 L 2.502 58.145 L 5.288 58.145 L 8.073 58.145 L 8.122 58.048 C 8.262 57.759 8.245 57.156 8.089 56.911 C 8.048 56.845 7.863 56.842 5.316 56.833 C 3.815 56.833 2.569 56.842 2.545 56.858 Z " fill="rgb(255,255,255)"/></g></g></g></g></g></g></g></g></g></g></g></g></svg>