<?xml version="1.0" encoding="UTF-8" standalone="no"?><!-- Generator: Gravit.io --><svg xmlns="http://www.w3.org/2000/svg" xmlns:xlink="http://www.w3.org/1999/xlink" style="isolation:isolate" viewBox="0 0 518.932 437.881" width="518.932pt" height="437.881pt"><defs><clipPath id="_clipPath_FIOYCckO56sRP4nWtzskaZ4PGzor3Hpp"><rect width="518.932" height="437.881"/></clipPath></defs><g clip-path="url(#_clipPath_FIOYCckO56sRP4nWtzskaZ4PGzor3Hpp)"><path d=" M 37.93 79.301 C 33.43 81.301 29.33 85.201 26.63 90.201 L 24.43 94.201 L 24.43 207.401 L 24.43 320.601 L 26.73 322.901 L 29.03 325.201 L 152.73 325.501 C 220.73 325.601 277.93 325.501 279.73 325.201 C 281.43 324.901 283.83 323.601 284.93 322.501 C 286.93 320.401 286.93 318.901 286.93 207.801 L 286.93 95.201 L 284.53 90.201 C 281.83 84.401 278.83 81.401 273.73 79.201 C 270.43 77.901 256.63 77.701 155.73 77.701 C 55.83 77.801 41.03 78.001 37.93 79.301 Z " fill="rgb(20,55,86)"/><path d=" M 315.03 124.401 C 313.13 125.401 310.63 127.501 309.53 129.001 C 307.43 131.801 307.43 132.401 307.13 239.301 L 306.93 346.701 L 250.23 346.701 L 193.53 346.701 L 197.63 351.001 C 205.23 358.901 211.73 370.901 213.43 380.001 L 214.13 383.701 L 274.23 383.501 L 334.23 383.201 L 335.93 377.201 C 338.43 368.201 342.23 360.901 348.13 354.001 C 363.03 336.501 385.63 329.101 407.23 334.601 C 429.43 340.301 445.13 356.301 450.93 379.401 L 452.03 383.701 L 483.43 383.701 C 513.63 383.701 515.03 383.601 516.93 381.701 C 518.73 379.901 518.93 378.401 518.93 364.901 C 518.93 346.101 519.43 346.701 504.63 346.701 L 493.93 346.701 L 493.93 293.401 C 493.93 257.101 493.53 238.201 492.73 234.301 C 490.93 225.201 485.83 216.401 461.43 180.201 C 432.63 137.601 428.13 132.801 410.03 125.801 L 403.43 123.201 L 360.93 122.901 C 321.83 122.701 318.13 122.801 315.03 124.401 Z  M 407.13 164.901 C 409.13 166.401 444.23 216.401 445.23 219.001 C 446.33 222.101 443.33 226.501 439.63 227.201 C 437.93 227.501 415.83 227.701 390.63 227.501 L 344.73 227.201 L 342.83 224.801 C 341.03 222.601 340.93 220.601 340.93 196.001 C 340.93 170.001 341.33 166.501 344.33 164.501 C 344.93 164.101 358.93 163.701 375.53 163.701 C 398.03 163.701 405.93 164.001 407.13 164.901 Z " fill="rgb(20,55,86)"/><path d=" M 8.63 348.501 C 7.23 350.101 6.93 352.801 6.93 365.001 C 6.93 378.401 7.13 379.901 8.93 381.701 C 10.83 383.601 12.23 383.701 53.83 383.701 L 96.73 383.701 L 97.33 379.201 C 98.43 372.401 105.33 359.401 111.63 352.701 L 117.13 346.701 L 63.73 346.701 C 13.13 346.701 10.13 346.801 8.63 348.501 Z " fill="rgb(20,55,86)"/><path d=" M 141.83 348.301 C 122.53 354.201 109.73 371.701 109.73 392.201 C 109.73 427.401 146.13 448.701 177.93 432.201 C 183.03 429.501 191.63 421.001 194.83 415.301 C 203.03 400.901 202.93 382.601 194.63 368.501 C 189.43 359.601 178.73 351.401 168.03 348.101 C 162.13 346.301 147.83 346.401 141.83 348.301 Z  M 161.63 371.201 C 170.83 373.901 177.03 382.401 177.03 392.201 C 177.03 398.801 174.43 404.301 168.83 409.001 C 155.03 420.901 133.43 410.601 133.43 392.201 C 133.43 382.201 139.43 374.201 149.23 371.101 C 154.73 369.401 155.63 369.401 161.63 371.201 Z " fill="rgb(20,55,86)"/><path d=" M 378.23 348.701 C 367.73 352.401 357.23 361.401 352.23 371.001 C 347.43 380.401 346.13 395.401 349.33 405.901 C 353.53 419.801 365.83 431.901 380.13 436.201 C 387.53 438.401 400.23 438.201 407.43 435.701 C 440.73 424.201 449.73 381.601 423.73 358.201 C 417.93 353.001 415.03 351.301 407.13 348.601 C 399.73 346.101 385.53 346.101 378.23 348.701 Z  M 398.43 370.801 C 403.93 372.201 410.63 377.801 413.03 383.101 C 419.43 397.301 408.83 414.001 393.43 414.001 C 384.03 414.001 377.33 409.701 373.33 401.201 C 370.43 395.101 370.33 389.601 373.03 383.701 C 376.33 376.501 381.03 372.401 388.43 370.601 C 392.83 369.601 393.63 369.601 398.43 370.801 Z " fill="rgb(20,55,86)"/><g><defs><filter id="nfJfP4iiq2ELMad2489eKO2OTATM2pHI" x="-200%" y="-200%" width="400%" height="400%" filterUnits="objectBoundingBox" color-interpolation-filters="sRGB"><feGaussianBlur xmlns="http://www.w3.org/2000/svg" in="SourceGraphic" stdDeviation="0"/><feOffset xmlns="http://www.w3.org/2000/svg" dx="0" dy="0" result="pf_100_offsetBlur"/><feFlood xmlns="http://www.w3.org/2000/svg" flood-color="#FFFFFF" flood-opacity="1"/><feComposite xmlns="http://www.w3.org/2000/svg" in2="pf_100_offsetBlur" operator="in" result="pf_100_dropShadow"/><feBlend xmlns="http://www.w3.org/2000/svg" in="SourceGraphic" in2="pf_100_dropShadow" mode="normal"/></filter></defs><g filter="url(#nfJfP4iiq2ELMad2489eKO2OTATM2pHI)"><path d=" M 162.069 5.096 C 142.267 6.895 126.39 13.543 113.101 25.589 C 89.718 46.785 83.678 78.737 97.958 105.565 C 100.504 110.336 162.242 201.106 164.399 203.257 C 166.47 205.291 170.396 205.604 172.812 203.883 C 174.02 203.023 233.99 112.683 237.182 106.934 C 240.72 100.52 243.05 94.106 244.56 86.598 C 245.466 82.061 245.552 69.977 244.732 65.284 C 242.014 49.718 234.637 36.422 222.686 25.589 C 210.822 14.834 195.764 7.912 179.154 5.644 C 175.703 5.174 164.917 4.822 162.069 5.096 Z  M 178.464 41.388 C 191.536 44.947 201.201 53.708 205.256 65.675 C 206.335 68.882 206.464 69.742 206.464 75.256 C 206.464 80.731 206.335 81.67 205.299 84.759 C 199.777 101.068 184.418 111.118 166.168 110.336 C 149.126 109.632 135.622 99.933 130.488 84.759 C 129.453 81.67 129.323 80.731 129.323 75.256 C 129.323 69.742 129.453 68.882 130.531 65.675 C 134.932 52.612 145.632 43.696 160.603 40.645 C 165.046 39.746 173.632 40.098 178.464 41.388 Z " fill="rgb(255,255,255)"/></g><path d=" M 162.285 52.417 C 150.809 54.646 142.008 64.58 142.008 75.256 C 142.008 87.927 153.915 98.721 167.894 98.721 C 179.801 98.721 190.674 90.704 193.133 80.145 C 194.988 72.167 192.442 64.619 186.057 58.792 C 179.629 52.964 171.086 50.696 162.285 52.417 Z " fill="rgb(255,255,255)"/></g><g><g><defs><filter id="othAUlvYKs68xOXFAUYdH55a5997nbi9" x="-200%" y="-200%" width="400%" height="400%" filterUnits="objectBoundingBox" color-interpolation-filters="sRGB"><feGaussianBlur xmlns="http://www.w3.org/2000/svg" in="SourceGraphic" stdDeviation="2.146804531419514"/><feOffset xmlns="http://www.w3.org/2000/svg" dx="0" dy="0" result="pf_100_offsetBlur"/><feFlood xmlns="http://www.w3.org/2000/svg" flood-color="#143756" flood-opacity="1"/><feComposite xmlns="http://www.w3.org/2000/svg" in2="pf_100_offsetBlur" operator="in" result="pf_100_dropShadow"/><feBlend xmlns="http://www.w3.org/2000/svg" in="SourceGraphic" in2="pf_100_dropShadow" mode="normal"/></filter></defs><g filter="url(#othAUlvYKs68xOXFAUYdH55a5997nbi9)"><path d=" M 51.27 179.561 C 49.766 179.932 48.595 180.814 47.927 182.095 L 47.286 183.348 L 47.286 196.473 L 47.286 209.597 L 44.472 210.223 C 36.365 212.017 29.568 218.053 26.67 225.996 C 25.138 230.238 25.194 229.27 25.082 259.562 C 24.999 277.64 25.054 288.885 25.249 291.22 C 25.862 298.594 28.537 304.117 33.802 308.814 C 34.694 309.611 35.864 310.522 36.421 310.836 L 37.396 311.405 L 37.312 313.768 C 37.117 318.494 37.953 321.341 40.098 323.191 C 42.188 324.985 40.656 324.9 66.648 324.9 C 92.975 324.9 91.554 325.014 93.755 322.935 C 95.705 321.113 96.123 319.889 96.263 315.305 L 96.402 311.433 L 97.823 310.409 C 101.835 307.59 105.205 303.177 106.905 298.508 C 108.465 294.181 108.409 295.69 108.493 264.401 C 108.604 234.223 108.521 231.32 107.434 227.562 C 106.097 222.978 103.06 218.309 99.383 215.206 C 96.792 213.042 92.585 210.992 89.103 210.223 L 86.289 209.597 L 86.289 196.416 C 86.289 183.86 86.261 183.177 85.732 182.124 C 85.147 180.928 84.144 180.102 82.695 179.618 C 81.609 179.22 52.802 179.191 51.27 179.561 Z  M 75.898 189.924 L 76.678 190.608 L 76.678 194.337 C 76.678 199.69 77.569 199.234 66.815 199.234 C 60.659 199.234 58.012 199.149 57.733 198.921 C 56.981 198.295 56.703 196.643 56.814 193.597 C 56.898 190.75 56.953 190.579 57.678 189.924 L 58.458 189.241 L 66.788 189.241 L 75.117 189.241 L 75.898 189.924 Z  M 67.178 237.469 C 67.094 237.697 66.732 238.095 66.37 238.323 C 66.008 238.579 65.339 239.376 64.921 240.117 C 64.28 241.227 64.141 241.796 64.169 243.191 C 64.225 246.722 66.509 249.739 73.725 255.69 C 81.664 262.266 84.896 266.736 86.15 272.8 C 87.598 279.804 85.537 285.754 80.522 289.142 C 75.675 292.416 66.147 293.441 58.625 291.476 C 50.88 289.426 46.617 283.903 47.091 276.501 C 47.286 273.853 48.233 270.722 49.543 268.501 C 50.49 266.935 52.719 264.458 52.997 264.743 C 53.081 264.8 53.025 265.512 52.886 266.309 C 52.412 268.814 53.081 270.238 55.059 270.921 C 58.43 272.06 60.854 270.095 60.603 266.394 C 60.519 265.085 60.185 264.231 58.736 261.611 C 56.48 257.426 55.922 255.775 55.922 253.013 C 55.922 246.75 59.461 240.003 63.862 237.868 C 65.701 236.985 67.428 236.786 67.178 237.469 Z " fill="rgb(255,255,255)" vector-effect="non-scaling-stroke" stroke-width="0.1" stroke="rgb(20,55,86)" stroke-linejoin="miter" stroke-linecap="butt" stroke-miterlimit="4"/></g></g></g><g><mask id="_mask_HUEYULckVx70wXOiEkjcIwAj4eL3KFk8" x="-200%" y="-200%" width="400%" height="400%"><rect x="-200%" y="-200%" width="400%" height="400%" style="fill:white;"/><path d=" M 9.335 293.331 C 8.784 293.715 8.464 294.28 8.174 295.387 C 7.709 297.059 8.203 299.025 9.321 299.974 C 9.742 300.336 11.614 300.359 38.004 300.359 C 64.394 300.359 66.266 300.336 66.687 299.974 C 68.284 298.619 68.458 295.274 67.021 293.67 L 66.528 293.128 L 38.149 293.082 C 14.822 293.037 9.698 293.082 9.335 293.331 Z " fill="black" stroke="none"/></mask><path d=" M 9.335 293.331 C 8.784 293.715 8.464 294.28 8.174 295.387 C 7.709 297.059 8.203 299.025 9.321 299.974 C 9.742 300.336 11.614 300.359 38.004 300.359 C 64.394 300.359 66.266 300.336 66.687 299.974 C 68.284 298.619 68.458 295.274 67.021 293.67 L 66.528 293.128 L 38.149 293.082 C 14.822 293.037 9.698 293.082 9.335 293.331 Z " fill="rgb(255,255,255)"/><path d=" M 9.335 293.331 C 8.784 293.715 8.464 294.28 8.174 295.387 C 7.709 297.059 8.203 299.025 9.321 299.974 C 9.742 300.336 11.614 300.359 38.004 300.359 C 64.394 300.359 66.266 300.336 66.687 299.974 C 68.284 298.619 68.458 295.274 67.021 293.67 L 66.528 293.128 L 38.149 293.082 C 14.822 293.037 9.698 293.082 9.335 293.331 Z " fill="rgb(255,255,255)" mask="url(#_mask_HUEYULckVx70wXOiEkjcIwAj4eL3KFk8)" vector-effect="non-scaling-stroke" stroke-width="4" stroke="rgb(255,255,255)" stroke-linejoin="miter" stroke-linecap="butt" stroke-miterlimit="4"/><mask id="_mask_EzMPSiPI7NgPL6yRBhZizAX0lalxhmbR" x="-200%" y="-200%" width="400%" height="400%"><rect x="-200%" y="-200%" width="400%" height="400%" style="fill:white;"/><path d=" M 14.786 306.001 C 14.384 306.544 13.927 308.193 13.927 309.097 C 13.927 310.001 14.384 311.651 14.786 312.193 L 15.155 312.713 L 36.427 312.713 L 57.699 312.713 L 58.069 312.193 C 58.471 311.651 58.927 310.001 58.927 309.097 C 58.927 308.193 58.471 306.544 58.069 306.001 L 57.699 305.482 L 36.427 305.482 L 15.155 305.482 L 14.786 306.001 Z " fill="black" stroke="none"/></mask><path d=" M 14.786 306.001 C 14.384 306.544 13.927 308.193 13.927 309.097 C 13.927 310.001 14.384 311.651 14.786 312.193 L 15.155 312.713 L 36.427 312.713 L 57.699 312.713 L 58.069 312.193 C 58.471 311.651 58.927 310.001 58.927 309.097 C 58.927 308.193 58.471 306.544 58.069 306.001 L 57.699 305.482 L 36.427 305.482 L 15.155 305.482 L 14.786 306.001 Z " fill="rgb(255,255,255)"/><path d=" M 14.786 306.001 C 14.384 306.544 13.927 308.193 13.927 309.097 C 13.927 310.001 14.384 311.651 14.786 312.193 L 15.155 312.713 L 36.427 312.713 L 57.699 312.713 L 58.069 312.193 C 58.471 311.651 58.927 310.001 58.927 309.097 C 58.927 308.193 58.471 306.544 58.069 306.001 L 57.699 305.482 L 36.427 305.482 L 15.155 305.482 L 14.786 306.001 Z " fill="rgb(255,255,255)" mask="url(#_mask_EzMPSiPI7NgPL6yRBhZizAX0lalxhmbR)" vector-effect="non-scaling-stroke" stroke-width="3.5" stroke="rgb(255,255,255)" stroke-linejoin="miter" stroke-linecap="butt" stroke-miterlimit="4"/><mask id="_mask_ORA78oADXdVnvSxMdSYAZLJiqTd9xJts" x="-200%" y="-200%" width="400%" height="400%"><rect x="-200%" y="-200%" width="400%" height="400%" style="fill:white;"/><path d=" M 21.958 316.926 C 21.182 317.514 20.797 319.796 21.109 321.965 C 21.189 322.53 21.363 323.231 21.494 323.524 L 21.741 324.067 L 36.003 324.067 L 50.265 324.067 L 50.511 323.524 C 51.23 321.92 51.143 318.576 50.344 317.22 C 50.134 316.858 49.19 316.836 36.148 316.791 C 28.462 316.791 22.082 316.836 21.958 316.926 Z " fill="black" stroke="none"/></mask><path d=" M 21.958 316.926 C 21.182 317.514 20.797 319.796 21.109 321.965 C 21.189 322.53 21.363 323.231 21.494 323.524 L 21.741 324.067 L 36.003 324.067 L 50.265 324.067 L 50.511 323.524 C 51.23 321.92 51.143 318.576 50.344 317.22 C 50.134 316.858 49.19 316.836 36.148 316.791 C 28.462 316.791 22.082 316.836 21.958 316.926 Z " fill="rgb(255,255,255)"/><path d=" M 21.958 316.926 C 21.182 317.514 20.797 319.796 21.109 321.965 C 21.189 322.53 21.363 323.231 21.494 323.524 L 21.741 324.067 L 36.003 324.067 L 50.265 324.067 L 50.511 323.524 C 51.23 321.92 51.143 318.576 50.344 317.22 C 50.134 316.858 49.19 316.836 36.148 316.791 C 28.462 316.791 22.082 316.836 21.958 316.926 Z " fill="rgb(255,255,255)" mask="url(#_mask_ORA78oADXdVnvSxMdSYAZLJiqTd9xJts)" vector-effect="non-scaling-stroke" stroke-width="3" stroke="rgb(255,255,255)" stroke-linejoin="miter" stroke-linecap="butt" stroke-miterlimit="4"/></g></g></svg>