<?xml version="1.0" encoding="UTF-8" standalone="no"?><!-- Generator: Gravit.io --><svg xmlns="http://www.w3.org/2000/svg" xmlns:xlink="http://www.w3.org/1999/xlink" style="isolation:isolate" viewBox="0 0 128 128" width="128pt" height="128pt"><defs><clipPath id="_clipPath_2MH7FLLTOOKFqefwzpP6fT8rYrHqISF8"><rect width="128" height="128"/></clipPath></defs><g clip-path="url(#_clipPath_2MH7FLLTOOKFqefwzpP6fT8rYrHqISF8)"><path d=" M 53.1 5.6 C 25.4 13 11.9 43.8 25.4 68.7 C 26.9 71.4 31 76.9 34.6 81 C 43 90.8 51 102.7 56.6 113.8 C 61.7 124 63.3 125.9 65.4 124.1 C 66.2 123.4 68.9 118.7 71.4 113.7 C 77.1 102 84.1 91.6 92.9 81.6 C 101.7 71.6 105.6 64.3 107.2 55.2 C 112.5 24.1 83.4 -2.6 53.1 5.6 Z  M 70 33.2 C 70 33.7 70.5 33.8 71 33.5 C 71.6 33.2 72 33.4 72 34 C 72 34.6 72.4 34.9 72.9 34.6 C 74 33.9 78.2 38.4 77.3 39.3 C 77 39.7 77.2 40 77.9 40 C 78.6 40 78.8 40.4 78.5 41 C 78.2 41.5 78.3 42 78.8 42 C 79.3 42 79.8 44.6 79.9 47.8 C 80.1 55.1 77.5 59.5 71 62.7 C 65.4 65.6 61.6 65.6 56 62.7 C 51 60.2 47 53.9 47 48.5 C 47 44 51 36.9 54.9 34.2 C 57.6 32.4 59.6 32 64.2 32.1 C 67.4 32.2 70 32.7 70 33.2 Z " fill="rgb(20,55,86)"/><path d=" M 54.933 33.453 C 50.045 35.812 45 43.676 45 48.866 C 45 58.146 53.987 67.11 63.131 67.11 C 81.893 67.11 88.042 40.216 71.014 33.139 C 64.235 30.308 61.239 30.465 54.933 33.453 Z  M 72.591 39.587 C 75.114 41.946 76.533 45.249 76.533 48.237 C 76.533 51.225 75.114 54.528 72.591 56.887 C 64.865 64.751 51.307 59.246 51.307 48.237 C 51.307 41.789 57.455 35.655 63.92 35.655 C 66.915 35.655 70.226 37.071 72.591 39.587 Z " fill="rgb(20,55,86)"/><path d=" M 59.518 39.412 C 56.803 40.723 54 45.091 54 47.975 C 54 53.13 58.993 58.11 64.073 58.11 C 74.496 58.11 77.912 43.169 68.452 39.237 C 64.686 37.664 63.022 37.752 59.518 39.412 Z  M 69.328 42.82 C 70.73 44.13 71.518 45.965 71.518 47.625 C 71.518 49.285 70.73 51.12 69.328 52.431 C 65.036 56.8 57.504 53.741 57.504 47.625 C 57.504 44.043 60.92 40.635 64.511 40.635 C 66.175 40.635 68.014 41.422 69.328 42.82 Z " fill="rgb(20,55,86)" vector-effect="non-scaling-stroke" stroke-width="20" stroke="rgb(20,55,86)" stroke-linejoin="miter" stroke-linecap="butt" stroke-miterlimit="4"/><g><path d=" M 59.352 22.09 C 58.902 22.217 58.551 22.52 58.351 22.96 L 58.159 23.39 L 58.159 27.897 L 58.159 32.404 L 57.317 32.619 C 54.889 33.235 52.853 35.308 51.986 38.035 C 51.527 39.492 51.544 39.16 51.51 49.562 C 51.485 55.77 51.502 59.632 51.56 60.434 C 51.744 62.966 52.545 64.863 54.121 66.476 C 54.388 66.75 54.739 67.062 54.906 67.17 L 55.198 67.365 L 55.173 68.177 C 55.114 69.8 55.365 70.778 56.007 71.413 C 56.633 72.029 56.174 72 63.957 72 C 71.841 72 71.416 72.039 72.075 71.325 C 72.659 70.699 72.784 70.279 72.826 68.705 L 72.867 67.375 L 73.293 67.023 C 74.494 66.055 75.504 64.54 76.012 62.937 C 76.48 61.451 76.463 61.969 76.488 51.224 C 76.521 40.861 76.496 39.864 76.171 38.573 C 75.77 36.999 74.861 35.396 73.76 34.33 C 72.984 33.587 71.724 32.883 70.681 32.619 L 69.839 32.404 L 69.839 27.877 C 69.839 23.566 69.831 23.331 69.672 22.969 C 69.497 22.559 69.197 22.275 68.763 22.109 C 68.437 21.972 59.811 21.962 59.352 22.09 Z  M 66.727 25.648 L 66.961 25.883 L 66.961 27.164 C 66.961 29.002 67.228 28.845 64.007 28.845 C 62.164 28.845 61.371 28.816 61.288 28.738 C 61.063 28.523 60.979 27.956 61.012 26.909 C 61.037 25.932 61.054 25.873 61.271 25.648 L 61.505 25.414 L 63.999 25.414 L 66.494 25.414 L 66.727 25.648 Z  M 64.116 41.975 C 64.091 42.054 63.982 42.19 63.874 42.269 C 63.766 42.357 63.565 42.63 63.44 42.885 C 63.248 43.266 63.207 43.461 63.215 43.94 C 63.232 45.153 63.916 46.189 66.076 48.232 C 68.454 50.491 69.422 52.026 69.797 54.108 C 70.231 56.513 69.614 58.557 68.112 59.72 C 66.66 60.844 63.807 61.196 61.555 60.522 C 59.235 59.818 57.959 57.921 58.101 55.379 C 58.159 54.47 58.443 53.395 58.835 52.632 C 59.119 52.094 59.786 51.244 59.87 51.341 C 59.895 51.361 59.878 51.605 59.836 51.879 C 59.694 52.74 59.895 53.228 60.487 53.463 C 61.496 53.854 62.222 53.179 62.147 51.908 C 62.122 51.459 62.022 51.165 61.588 50.266 C 60.912 48.829 60.745 48.262 60.745 47.313 C 60.745 45.163 61.805 42.845 63.123 42.112 C 63.674 41.809 64.191 41.741 64.116 41.975 Z " fill="rgb(255,255,255)"/></g></g></svg>