<?xml version="1.0" encoding="UTF-8" standalone="no"?><!-- Generator: Gravit.io --><svg xmlns="http://www.w3.org/2000/svg" xmlns:xlink="http://www.w3.org/1999/xlink" style="isolation:isolate" viewBox="0 0 99 80" width="99pt" height="80pt"><defs><clipPath id="_clipPath_Fq4OjcnfQt6V8WXPLpOQbJ3EwE3HuX5O"><rect width="99" height="80"/></clipPath></defs><g clip-path="url(#_clipPath_Fq4OjcnfQt6V8WXPLpOQbJ3EwE3HuX5O)"><clipPath id="_clipPath_GUrGmqlLVQBU39BUiNRFi4vkM5KXUHRA"><path d=" M 100 80 L 100 0 L 0 0 L 0 80" fill="rgb(255,255,255)"/></clipPath><g clip-path="url(#_clipPath_GUrGmqlLVQBU39BUiNRFi4vkM5KXUHRA)"><g><g><path d=" M 6.055 13.997 C 5.176 14.358 4.375 15.061 3.848 15.963 L 3.418 16.684 L 3.418 37.103 L 3.418 57.521 L 3.867 57.935 L 4.316 58.35 L 28.477 58.404 C 41.758 58.422 52.93 58.404 53.281 58.35 C 53.613 58.296 54.082 58.062 54.297 57.863 C 54.688 57.485 54.688 57.214 54.688 37.175 L 54.688 16.865 L 54.219 15.963 C 53.691 14.917 53.105 14.376 52.109 13.979 C 51.465 13.744 48.77 13.708 29.063 13.708 C 9.551 13.726 6.66 13.762 6.055 13.997 Z " fill="rgb(20,55,86)"/><path d=" M 60.176 22.132 C 59.805 22.312 59.316 22.691 59.102 22.961 C 58.691 23.466 58.691 23.575 58.633 42.856 L 58.594 62.228 L 47.52 62.228 L 36.445 62.228 L 37.246 63.004 C 38.73 64.429 40 66.593 40.332 68.235 L 40.469 68.902 L 52.207 68.866 L 63.926 68.812 L 64.258 67.73 C 64.746 66.106 65.488 64.79 66.641 63.545 C 69.551 60.389 73.965 59.054 78.184 60.046 C 82.52 61.074 85.586 63.96 86.719 68.126 L 86.934 68.902 L 93.066 68.902 C 98.965 68.902 99.238 68.884 99.609 68.541 C 99.961 68.217 100 67.946 100 65.511 C 100 62.12 100.098 62.228 97.207 62.228 L 95.117 62.228 L 95.117 52.614 C 95.117 46.067 95.039 42.658 94.883 41.955 C 94.531 40.313 93.535 38.726 88.77 32.196 C 83.145 24.513 82.266 23.647 78.73 22.384 L 77.441 21.915 L 69.141 21.861 C 61.504 21.825 60.781 21.843 60.176 22.132 Z  M 78.164 29.437 C 78.555 29.707 85.41 38.726 85.605 39.195 C 85.82 39.754 85.234 40.548 84.512 40.674 C 84.18 40.728 79.863 40.764 74.941 40.728 L 65.977 40.674 L 65.605 40.241 C 65.254 39.844 65.234 39.483 65.234 35.046 C 65.234 30.357 65.312 29.725 65.898 29.365 C 66.016 29.292 68.75 29.22 71.992 29.22 C 76.387 29.22 77.93 29.274 78.164 29.437 Z " fill="rgb(20,55,86)"/><path d=" M 0.332 62.553 C 0.059 62.842 0 63.329 0 65.529 C 0 67.946 0.039 68.217 0.391 68.541 C 0.762 68.884 1.035 68.902 9.16 68.902 L 17.539 68.902 L 17.656 68.09 C 17.871 66.864 19.219 64.519 20.449 63.311 L 21.523 62.228 L 11.094 62.228 C 1.211 62.228 0.625 62.246 0.332 62.553 Z " fill="rgb(20,55,86)"/><path d=" M 26.348 62.517 C 22.578 63.581 20.078 66.738 20.078 70.435 C 20.078 76.784 27.187 80.626 33.398 77.65 C 34.395 77.163 36.074 75.63 36.699 74.602 C 38.301 72.004 38.281 68.704 36.66 66.16 C 35.645 64.555 33.555 63.076 31.465 62.481 C 30.312 62.156 27.52 62.174 26.348 62.517 Z  M 30.215 66.647 C 32.012 67.134 33.223 68.668 33.223 70.435 C 33.223 71.626 32.715 72.618 31.621 73.465 C 28.926 75.612 24.707 73.754 24.707 70.435 C 24.707 68.632 25.879 67.189 27.793 66.629 C 28.867 66.323 29.043 66.323 30.215 66.647 Z " fill="rgb(20,55,86)"/><path d=" M 72.52 62.589 C 70.469 63.256 68.418 64.88 67.441 66.611 C 66.504 68.307 66.25 71.012 66.875 72.906 C 67.695 75.414 70.098 77.596 72.891 78.372 C 74.336 78.768 76.816 78.732 78.223 78.281 C 84.727 76.207 86.484 68.523 81.406 64.303 C 80.273 63.365 79.707 63.058 78.164 62.571 C 76.719 62.12 73.945 62.12 72.52 62.589 Z  M 76.465 66.575 C 77.539 66.828 78.848 67.838 79.316 68.794 C 80.566 71.355 78.496 74.367 75.488 74.367 C 73.652 74.367 72.344 73.592 71.562 72.059 C 70.996 70.958 70.977 69.966 71.504 68.902 C 72.148 67.603 73.066 66.864 74.512 66.539 C 75.371 66.359 75.527 66.359 76.465 66.575 Z " fill="rgb(20,55,86)"/><g><g filter="url(#2JTMqnW7SolpI4RiKu11r449a722RQS7)"><path d=" M 27.163 0.215 C 23.67 0.508 20.869 1.587 18.524 3.542 C 14.399 6.983 13.334 12.17 15.853 16.525 C 16.302 17.299 27.194 32.035 27.574 32.384 C 27.939 32.714 28.632 32.765 29.058 32.486 C 29.271 32.346 39.851 17.68 40.413 16.748 C 41.037 15.706 41.448 14.665 41.715 13.446 C 41.875 12.709 41.891 10.748 41.745 9.986 C 41.266 7.46 39.965 5.301 37.856 3.542 C 35.763 1.796 33.107 0.673 30.177 0.305 C 29.568 0.228 27.666 0.171 27.163 0.215 Z  M 30.055 6.107 C 32.361 6.685 34.066 8.107 34.781 10.049 C 34.972 10.57 34.995 10.71 34.995 11.605 C 34.995 12.494 34.972 12.647 34.789 13.148 C 33.815 15.795 31.105 17.426 27.886 17.299 C 24.88 17.185 22.497 15.611 21.591 13.148 C 21.409 12.647 21.386 12.494 21.386 11.605 C 21.386 10.71 21.409 10.57 21.599 10.049 C 22.376 7.93 24.263 6.481 26.904 5.987 C 27.688 5.841 29.202 5.898 30.055 6.107 Z " fill="rgb(255,255,255)"/></g><defs><filter id="2JTMqnW7SolpI4RiKu11r449a722RQS7" x="-200%" y="-200%" width="400%" height="400%" filterUnits="objectBoundingBox" color-interpolation-filters="sRGB"><feGaussianBlur xmlns="http://www.w3.org/2000/svg" in="SourceGraphic" stdDeviation="2.146804531419514"/><feOffset xmlns="http://www.w3.org/2000/svg" dx="0" dy="0" result="pf_100_offsetBlur"/><feFlood xmlns="http://www.w3.org/2000/svg" flood-color="#FFFFFF" flood-opacity="1"/><feComposite xmlns="http://www.w3.org/2000/svg" in2="pf_100_offsetBlur" operator="in" result="pf_100_dropShadow"/><feBlend xmlns="http://www.w3.org/2000/svg" in="SourceGraphic" in2="pf_100_dropShadow" mode="normal"/></filter></defs><path d=" M 27.201 9.194 C 25.177 9.556 23.623 11.169 23.623 12.902 C 23.623 14.959 25.724 16.711 28.191 16.711 C 30.291 16.711 32.209 15.41 32.643 13.695 C 32.97 12.4 32.521 11.175 31.395 10.229 C 30.261 9.283 28.753 8.915 27.201 9.194 Z " fill="rgb(255,255,255)"/></g><g><g filter="url(#jfilO0d1JQHvFPJFszLhATlRoHi1vuPl)"><path d=" M 26.452 38.536 C 26.272 38.587 26.132 38.708 26.052 38.884 L 25.975 39.056 L 25.975 40.859 L 25.975 42.661 L 25.638 42.748 C 24.667 42.994 23.853 43.823 23.506 44.914 C 23.322 45.497 23.329 45.364 23.315 49.525 C 23.305 52.008 23.312 53.553 23.335 53.873 C 23.409 54.886 23.729 55.645 24.36 56.29 C 24.467 56.4 24.607 56.525 24.673 56.568 L 24.79 56.646 L 24.78 56.97 C 24.757 57.62 24.857 58.011 25.114 58.265 C 25.364 58.511 25.181 58.5 28.294 58.5 C 31.448 58.5 31.278 58.515 31.541 58.23 C 31.775 57.98 31.825 57.811 31.842 57.182 L 31.858 56.65 L 32.029 56.509 C 32.509 56.122 32.913 55.516 33.116 54.875 C 33.303 54.28 33.296 54.487 33.306 50.19 C 33.32 46.044 33.31 45.645 33.18 45.129 C 33.019 44.5 32.656 43.858 32.215 43.432 C 31.905 43.135 31.401 42.853 30.984 42.748 L 30.647 42.661 L 30.647 40.851 C 30.647 39.126 30.644 39.033 30.58 38.888 C 30.51 38.724 30.39 38.61 30.216 38.544 C 30.086 38.489 26.636 38.485 26.452 38.536 Z  M 29.402 39.959 L 29.496 40.053 L 29.496 40.565 C 29.496 41.301 29.603 41.238 28.314 41.238 C 27.577 41.238 27.26 41.226 27.226 41.195 C 27.136 41.109 27.103 40.882 27.116 40.464 C 27.126 40.073 27.133 40.049 27.22 39.959 L 27.313 39.865 L 28.311 39.865 L 29.309 39.865 L 29.402 39.959 Z  M 28.358 46.49 C 28.348 46.521 28.304 46.576 28.261 46.607 C 28.218 46.643 28.137 46.752 28.087 46.854 C 28.011 47.006 27.994 47.084 27.997 47.276 C 28.004 47.761 28.278 48.175 29.142 48.993 C 30.093 49.896 30.48 50.51 30.63 51.343 C 30.804 52.305 30.557 53.123 29.956 53.588 C 29.375 54.038 28.234 54.179 27.333 53.909 C 26.406 53.627 25.895 52.868 25.952 51.852 C 25.975 51.488 26.088 51.058 26.245 50.753 C 26.359 50.538 26.626 50.197 26.659 50.236 C 26.669 50.244 26.663 50.342 26.646 50.452 C 26.589 50.796 26.669 50.991 26.906 51.085 C 27.31 51.242 27.6 50.972 27.57 50.463 C 27.56 50.284 27.52 50.166 27.347 49.806 C 27.076 49.231 27.009 49.005 27.009 48.625 C 27.009 47.765 27.433 46.838 27.96 46.545 C 28.181 46.423 28.388 46.396 28.358 46.49 Z " fill="rgb(255,255,255)"/></g><defs><filter id="jfilO0d1JQHvFPJFszLhATlRoHi1vuPl" x="-200%" y="-200%" width="400%" height="400%" filterUnits="objectBoundingBox" color-interpolation-filters="sRGB"><feGaussianBlur xmlns="http://www.w3.org/2000/svg" in="SourceGraphic" stdDeviation="2.146804531419514"/><feOffset xmlns="http://www.w3.org/2000/svg" dx="0" dy="0" result="pf_100_offsetBlur"/><feFlood xmlns="http://www.w3.org/2000/svg" flood-color="#143756" flood-opacity="1"/><feComposite xmlns="http://www.w3.org/2000/svg" in2="pf_100_offsetBlur" operator="in" result="pf_100_dropShadow"/><feBlend xmlns="http://www.w3.org/2000/svg" in="SourceGraphic" in2="pf_100_dropShadow" mode="normal"/></filter></defs></g><g><path d=" M 0.079 52.602 C -0.028 52.671 -0.091 52.773 -0.148 52.973 C -0.238 53.275 -0.142 53.629 0.077 53.8 C 0.159 53.866 0.524 53.869 5.678 53.869 C 10.833 53.869 11.198 53.866 11.28 53.8 C 11.593 53.555 11.627 52.952 11.346 52.663 L 11.249 52.565 L 5.707 52.557 C 1.151 52.549 0.15 52.557 0.079 52.602 Z " fill="rgb(255,255,255)"/><path d=" M 1.144 54.887 C 1.065 54.985 0.976 55.283 0.976 55.446 C 0.976 55.609 1.065 55.907 1.144 56.004 L 1.216 56.098 L 5.37 56.098 L 9.525 56.098 L 9.598 56.004 C 9.676 55.907 9.765 55.609 9.765 55.446 C 9.765 55.283 9.676 54.985 9.598 54.887 L 9.525 54.793 L 5.37 54.793 L 1.216 54.793 L 1.144 54.887 Z " fill="rgb(255,255,255)"/><path d=" M 2.545 56.858 C 2.393 56.964 2.318 57.376 2.379 57.767 C 2.395 57.868 2.428 57.995 2.454 58.048 L 2.502 58.145 L 5.288 58.145 L 8.073 58.145 L 8.122 58.048 C 8.262 57.759 8.245 57.156 8.089 56.911 C 8.048 56.845 7.863 56.842 5.316 56.833 C 3.815 56.833 2.569 56.842 2.545 56.858 Z " fill="rgb(255,255,255)"/></g></g></g></g></g></svg>